<svg xmlns="http://www.w3.org/2000/svg" xmlns:xlink="http://www.w3.org/1999/xlink" width="719" height="219" viewBox="0 0 719 219">
    <defs>
        <path id="prefix__a" d="M0 0H719V219H0z"/>
        <path id="prefix__d" d="M0 685L1054 685 1054 1 0 1z"/>
        <linearGradient id="prefix__b" x1="166.876%" x2="34.159%" y1="50%" y2="50%">
            <stop offset="0%" stop-color="#2C2C2C"/>
            <stop offset="100%" stop-color="#0F0F0F"/>
        </linearGradient>
    </defs>
    <g fill="none" fill-rule="evenodd">
        <mask id="prefix__c" fill="#fff">
            <use xlink:href="#prefix__a"/>
        </mask>
        <use fill="url(#prefix__b)" xlink:href="#prefix__a"/>
        <g mask="url(#prefix__c)" opacity=".47">
            <g transform="translate(-167 -148)">
                <path fill="#252525" d="M174 158.5c0 2.485-2.015 4.5-4.5 4.5s-4.5-2.015-4.5-4.5 2.015-4.5 4.5-4.5 4.5 2.015 4.5 4.5M206 158.5c0 2.485-2.015 4.5-4.5 4.5s-4.5-2.015-4.5-4.5 2.015-4.5 4.5-4.5 4.5 2.015 4.5 4.5M238 158.5c0 2.485-2.015 4.5-4.5 4.5s-4.5-2.015-4.5-4.5 2.015-4.5 4.5-4.5 4.5 2.015 4.5 4.5M270 158.5c0 2.485-2.015 4.5-4.5 4.5s-4.5-2.015-4.5-4.5 2.015-4.5 4.5-4.5 4.5 2.015 4.5 4.5M301 158.5c0 2.485-2.015 4.5-4.5 4.5s-4.5-2.015-4.5-4.5 2.015-4.5 4.5-4.5 4.5 2.015 4.5 4.5M332 158.5c0 1.933-1.567 3.5-3.5 3.5s-3.5-1.567-3.5-3.5 1.567-3.5 3.5-3.5 3.5 1.567 3.5 3.5M364 159c0 1.657-1.343 3-3 3s-3-1.343-3-3 1.343-3 3-3 3 1.343 3 3M396 159c0 1.657-1.343 3-3 3s-3-1.343-3-3 1.343-3 3-3 3 1.343 3 3M426 158.5c0 .828-.672 1.5-1.5 1.5-.829 0-1.5-.672-1.5-1.5s.671-1.5 1.5-1.5c.828 0 1.5.672 1.5 1.5M458 158.5c0 .828-.672 1.5-1.5 1.5-.829 0-1.5-.672-1.5-1.5s.671-1.5 1.5-1.5c.828 0 1.5.672 1.5 1.5M490 158.5c0 .828-.672 1.5-1.5 1.5s-1.5-.672-1.5-1.5.672-1.5 1.5-1.5 1.5.672 1.5 1.5M521 158.5c0 .828-.672 1.5-1.5 1.5s-1.5-.672-1.5-1.5.672-1.5 1.5-1.5 1.5.672 1.5 1.5M553 158.5c0 .828-.672 1.5-1.5 1.5s-1.5-.672-1.5-1.5.672-1.5 1.5-1.5 1.5.672 1.5 1.5M585 158.5c0 .828-.672 1.5-1.5 1.5-.829 0-1.5-.672-1.5-1.5s.671-1.5 1.5-1.5c.828 0 1.5.672 1.5 1.5M618 158.5c0 1.381-1.119 2.5-2.5 2.5-1.38 0-2.5-1.119-2.5-2.5s1.12-2.5 2.5-2.5c1.381 0 2.5 1.119 2.5 2.5M650 159c0 1.657-1.343 3-3 3s-3-1.343-3-3 1.343-3 3-3 3 1.343 3 3M682 159c0 1.657-1.343 3-3 3s-3-1.343-3-3 1.343-3 3-3 3 1.343 3 3M714 158.5c0 1.933-1.567 3.5-3.5 3.5s-3.5-1.567-3.5-3.5 1.567-3.5 3.5-3.5 3.5 1.567 3.5 3.5M746 158.5c0 1.933-1.567 3.5-3.5 3.5s-3.5-1.567-3.5-3.5 1.567-3.5 3.5-3.5 3.5 1.567 3.5 3.5M780 158.5c0 3.038-2.462 5.5-5.5 5.5s-5.5-2.462-5.5-5.5 2.462-5.5 5.5-5.5 5.5 2.462 5.5 5.5M813 159c0 3.314-2.686 6-6 6s-6-2.686-6-6 2.686-6 6-6 6 2.686 6 6M847 159c0 4.97-4.03 9-9 9s-9-4.03-9-9 4.03-9 9-9 9 4.03 9 9M886 159c0 8.836-7.163 16-16 16-8.836 0-16-7.164-16-16s7.164-16 16-16c8.837 0 16 7.164 16 16M174 186.5c0 2.485-2.015 4.5-4.5 4.5s-4.5-2.015-4.5-4.5 2.015-4.5 4.5-4.5 4.5 2.015 4.5 4.5M206 186.5c0 2.485-2.015 4.5-4.5 4.5s-4.5-2.015-4.5-4.5 2.015-4.5 4.5-4.5 4.5 2.015 4.5 4.5M238 186.5c0 2.485-2.015 4.5-4.5 4.5s-4.5-2.015-4.5-4.5 2.015-4.5 4.5-4.5 4.5 2.015 4.5 4.5M270 186.5c0 2.485-2.015 4.5-4.5 4.5s-4.5-2.015-4.5-4.5 2.015-4.5 4.5-4.5 4.5 2.015 4.5 4.5M301 186.5c0 2.485-2.015 4.5-4.5 4.5s-4.5-2.015-4.5-4.5 2.015-4.5 4.5-4.5 4.5 2.015 4.5 4.5M332 186.5c0 1.933-1.567 3.5-3.5 3.5s-3.5-1.567-3.5-3.5 1.567-3.5 3.5-3.5 3.5 1.567 3.5 3.5M364 186c0 1.657-1.343 3-3 3s-3-1.343-3-3 1.343-3 3-3 3 1.343 3 3M396 186c0 1.657-1.343 3-3 3s-3-1.343-3-3 1.343-3 3-3 3 1.343 3 3M426 186.5c0 .828-.672 1.5-1.5 1.5-.829 0-1.5-.672-1.5-1.5s.671-1.5 1.5-1.5c.828 0 1.5.672 1.5 1.5M458 186.5c0 .829-.671 1.5-1.5 1.5s-1.5-.671-1.5-1.5.671-1.5 1.5-1.5 1.5.671 1.5 1.5M489 186c0 .553-.448 1-1 1s-1-.447-1-1c0-.553.448-1 1-1s1 .447 1 1M521 186c0 .553-.448 1-1 1s-1-.447-1-1c0-.553.448-1 1-1s1 .447 1 1M553 186c0 .553-.448 1-1 1s-1-.447-1-1c0-.553.448-1 1-1s1 .447 1 1M585 186.5c0 .829-.671 1.5-1.5 1.5s-1.5-.671-1.5-1.5.671-1.5 1.5-1.5 1.5.671 1.5 1.5M617 187c0 1.105-.895 2-2 2s-2-.895-2-2c0-1.104.895-2 2-2s2 .896 2 2M650 187c0 1.104-.895 2-2 2s-2-.896-2-2 .895-2 2-2 2 .896 2 2M681 187c0 1.104-.895 2-2 2s-2-.896-2-2 .895-2 2-2 2 .896 2 2M713 187c0 1.104-.895 2-2 2s-2-.896-2-2 .895-2 2-2 2 .896 2 2M746 186.5c0 1.38-1.12 2.5-2.5 2.5s-2.5-1.12-2.5-2.5 1.12-2.5 2.5-2.5 2.5 1.12 2.5 2.5M778 186.5c0 1.933-1.567 3.5-3.5 3.5s-3.5-1.567-3.5-3.5 1.567-3.5 3.5-3.5 3.5 1.567 3.5 3.5M810 187c0 2.21-1.791 4-4 4-2.21 0-4-1.79-4-4s1.79-4 4-4c2.209 0 4 1.79 4 4M845 186.5c0 3.59-2.91 6.5-6.5 6.5s-6.5-2.91-6.5-6.5 2.91-6.5 6.5-6.5 6.5 2.91 6.5 6.5M879 186c0 4.971-4.03 9-9 9s-9-4.029-9-9c0-4.97 4.03-9 9-9s9 4.03 9 9M174 214.5c0 2.485-2.015 4.5-4.5 4.5s-4.5-2.015-4.5-4.5c0-2.486 2.015-4.5 4.5-4.5s4.5 2.014 4.5 4.5M206 214.5c0 2.485-2.015 4.5-4.5 4.5s-4.5-2.015-4.5-4.5c0-2.486 2.015-4.5 4.5-4.5s4.5 2.014 4.5 4.5M238 214.5c0 2.485-2.015 4.5-4.5 4.5s-4.5-2.015-4.5-4.5c0-2.486 2.015-4.5 4.5-4.5s4.5 2.014 4.5 4.5M270 214.5c0 2.485-2.015 4.5-4.5 4.5s-4.5-2.015-4.5-4.5c0-2.486 2.015-4.5 4.5-4.5s4.5 2.014 4.5 4.5M300 214c0 1.657-1.343 3-3 3-1.656 0-3-1.343-3-3s1.344-3 3-3c1.657 0 3 1.343 3 3M332 215c0 1.657-1.343 3-3 3s-3-1.343-3-3 1.343-3 3-3 3 1.343 3 3M363 214.5c0 1.38-1.12 2.5-2.5 2.5s-2.5-1.12-2.5-2.5 1.12-2.5 2.5-2.5 2.5 1.12 2.5 2.5M395 214.5c0 1.38-1.12 2.5-2.5 2.5s-2.5-1.12-2.5-2.5 1.12-2.5 2.5-2.5 2.5 1.12 2.5 2.5M426 214.5c0 .828-.672 1.5-1.5 1.5s-1.5-.672-1.5-1.5.672-1.5 1.5-1.5 1.5.672 1.5 1.5M458 214.5c0 .828-.672 1.5-1.5 1.5s-1.5-.672-1.5-1.5.672-1.5 1.5-1.5 1.5.672 1.5 1.5M489 215c0 .552-.448 1-1 1-.553 0-1-.448-1-1s.447-1 1-1c.552 0 1 .448 1 1M521 215c0 .552-.448 1-1 1-.553 0-1-.448-1-1s.447-1 1-1c.552 0 1 .448 1 1M553 215c0 .552-.448 1-1 1s-1-.448-1-1 .448-1 1-1 1 .448 1 1M585 214.5c0 .829-.671 1.5-1.5 1.5s-1.5-.671-1.5-1.5.671-1.5 1.5-1.5 1.5.671 1.5 1.5M617 214c0 1.105-.895 2-2 2s-2-.895-2-2 .895-2 2-2 2 .895 2 2M650 214c0 1.105-.895 2-2 2s-2-.895-2-2 .895-2 2-2 2 .895 2 2M681 214c0 1.105-.895 2-2 2s-2-.895-2-2 .895-2 2-2 2 .895 2 2M713 214c0 1.105-.895 2-2 2s-2-.895-2-2 .895-2 2-2 2 .895 2 2M745 214.5c0 1.38-1.12 2.5-2.5 2.5s-2.5-1.12-2.5-2.5 1.12-2.5 2.5-2.5 2.5 1.12 2.5 2.5M779 215c0 2.209-1.79 4-4 4s-4-1.791-4-4c0-2.21 1.79-4 4-4s4 1.79 4 4M810 214c0 2.209-1.791 4-4 4-2.21 0-4-1.791-4-4s1.79-4 4-4c2.209 0 4 1.791 4 4M845 214.5c0 3.59-2.91 6.5-6.5 6.5s-6.5-2.91-6.5-6.5 2.91-6.5 6.5-6.5 6.5 2.91 6.5 6.5M879 215c0 4.97-4.03 9-9 9s-9-4.03-9-9 4.03-9 9-9 9 4.03 9 9M174 243c0 2.761-2.239 5-5 5s-5-2.239-5-5 2.239-5 5-5 5 2.239 5 5M206 243c0 2.761-2.239 5-5 5-2.762 0-5-2.239-5-5s2.238-5 5-5c2.761 0 5 2.239 5 5M238 243c0 2.761-2.239 5-5 5-2.762 0-5-2.239-5-5s2.238-5 5-5c2.761 0 5 2.239 5 5M270 243c0 2.761-2.239 5-5 5-2.762 0-5-2.239-5-5s2.238-5 5-5c2.761 0 5 2.239 5 5M300 242.5c0 1.933-1.567 3.5-3.5 3.5s-3.5-1.567-3.5-3.5 1.567-3.5 3.5-3.5 3.5 1.567 3.5 3.5M332 242c0 1.657-1.343 3-3 3s-3-1.343-3-3 1.343-3 3-3 3 1.343 3 3M363 242.5c0 1.38-1.12 2.5-2.5 2.5s-2.5-1.12-2.5-2.5 1.12-2.5 2.5-2.5 2.5 1.12 2.5 2.5M394 243c0 1.105-.895 2-2 2s-2-.895-2-2 .895-2 2-2 2 .895 2 2M425 242c0 .553-.448 1-1 1s-1-.447-1-1c0-.552.448-1 1-1s1 .448 1 1M457 242c0 .553-.448 1-1 1s-1-.447-1-1c0-.552.448-1 1-1s1 .448 1 1M489 243c0 .552-.448 1-1 1s-1-.448-1-1 .448-1 1-1 1 .448 1 1M521 243c0 .552-.448 1-1 1s-1-.448-1-1 .448-1 1-1 1 .448 1 1M585 242.5c0 .829-.671 1.5-1.5 1.5s-1.5-.671-1.5-1.5.671-1.5 1.5-1.5 1.5.671 1.5 1.5M617 243c0 1.105-.895 2-2 2s-2-.895-2-2 .895-2 2-2 2 .895 2 2M650 243c0 1.105-.895 2-2 2s-2-.895-2-2 .895-2 2-2 2 .895 2 2M681 243c0 1.105-.895 2-2 2s-2-.895-2-2 .895-2 2-2 2 .895 2 2M713 243c0 1.105-.895 2-2 2s-2-.895-2-2 .895-2 2-2 2 .895 2 2M745 242.5c0 1.38-1.12 2.5-2.5 2.5s-2.5-1.12-2.5-2.5 1.12-2.5 2.5-2.5 2.5 1.12 2.5 2.5M779 242c0 2.21-1.79 4-4 4s-4-1.79-4-4c0-2.209 1.79-4 4-4s4 1.791 4 4M810 243c0 2.209-1.791 4-4 4-2.21 0-4-1.791-4-4 0-2.21 1.79-4 4-4 2.209 0 4 1.79 4 4M845 242.5c0 3.59-2.91 6.5-6.5 6.5s-6.5-2.91-6.5-6.5 2.91-6.5 6.5-6.5 6.5 2.91 6.5 6.5M879 242c0 4.971-4.03 9-9 9s-9-4.029-9-9c0-4.97 4.03-9 9-9s9 4.03 9 9M174 270c0 2.761-2.239 5-5 5s-5-2.239-5-5 2.239-5 5-5 5 2.239 5 5M206 270c0 2.761-2.239 5-5 5-2.762 0-5-2.239-5-5s2.238-5 5-5c2.761 0 5 2.239 5 5M238 270c0 2.761-2.239 5-5 5-2.762 0-5-2.239-5-5s2.238-5 5-5c2.761 0 5 2.239 5 5M270 270c0 2.761-2.239 5-5 5-2.762 0-5-2.239-5-5s2.238-5 5-5c2.761 0 5 2.239 5 5M300 270.5c0 1.933-1.567 3.5-3.5 3.5s-3.5-1.567-3.5-3.5 1.567-3.5 3.5-3.5 3.5 1.567 3.5 3.5M332 270c0 1.657-1.343 3-3 3s-3-1.343-3-3 1.343-3 3-3 3 1.343 3 3M363 270.5c0 1.38-1.12 2.5-2.5 2.5s-2.5-1.12-2.5-2.5 1.12-2.5 2.5-2.5 2.5 1.12 2.5 2.5M394 270c0 1.105-.895 2-2 2s-2-.895-2-2 .895-2 2-2 2 .895 2 2M425 270c0 .552-.448 1-1 1s-1-.448-1-1c0-.553.448-1 1-1s1 .447 1 1M457 270c0 .552-.448 1-1 1s-1-.448-1-1c0-.553.448-1 1-1s1 .447 1 1M489 270c0 .553-.448 1-1 1-.553 0-1-.447-1-1 0-.552.447-1 1-1 .552 0 1 .448 1 1M521 270c0 .553-.448 1-1 1-.553 0-1-.447-1-1 0-.552.447-1 1-1 .552 0 1 .448 1 1M585 270.5c0 .828-.672 1.5-1.5 1.5s-1.5-.672-1.5-1.5c0-.829.672-1.5 1.5-1.5s1.5.671 1.5 1.5M617 270.5c0 .828-.672 1.5-1.5 1.5s-1.5-.672-1.5-1.5.672-1.5 1.5-1.5 1.5.672 1.5 1.5M650 270c0 1.105-.895 2-2 2s-2-.895-2-2 .895-2 2-2 2 .895 2 2M681 270c0 1.105-.895 2-2 2s-2-.895-2-2 .895-2 2-2 2 .895 2 2M713 270c0 1.105-.895 2-2 2s-2-.895-2-2 .895-2 2-2 2 .895 2 2M745 270.5c0 1.38-1.12 2.5-2.5 2.5s-2.5-1.12-2.5-2.5 1.12-2.5 2.5-2.5 2.5 1.12 2.5 2.5M779 270c0 2.209-1.79 4-4 4s-4-1.791-4-4c0-2.21 1.79-4 4-4s4 1.79 4 4M810 270c0 2.21-1.791 4-4 4-2.21 0-4-1.79-4-4 0-2.209 1.79-4 4-4 2.209 0 4 1.791 4 4M845 270.5c0 3.59-2.91 6.5-6.5 6.5s-6.5-2.91-6.5-6.5 2.91-6.5 6.5-6.5 6.5 2.91 6.5 6.5M879 270c0 4.97-4.03 9-9 9s-9-4.03-9-9c0-4.971 4.03-9 9-9s9 4.029 9 9M174 298c0 2.762-2.239 5-5 5s-5-2.238-5-5 2.239-5 5-5 5 2.238 5 5M206 298c0 2.762-2.239 5-5 5s-5-2.238-5-5 2.239-5 5-5 5 2.238 5 5M237 298c0 2.209-1.791 4-4 4-2.21 0-4-1.791-4-4s1.79-4 4-4c2.209 0 4 1.791 4 4M269 298c0 2.21-1.79 4-4 4s-4-1.79-4-4 1.79-4 4-4 4 1.79 4 4M300 298.5c0 1.38-1.12 2.5-2.5 2.5s-2.5-1.12-2.5-2.5 1.12-2.5 2.5-2.5 2.5 1.12 2.5 2.5M331 298c0 1.104-.896 2-2 2s-2-.896-2-2c0-1.105.896-2 2-2s2 .895 2 2M362 297.5c0 .829-.671 1.5-1.5 1.5-.828 0-1.5-.671-1.5-1.5s.672-1.5 1.5-1.5c.829 0 1.5.671 1.5 1.5M394 298.5c0 .828-.672 1.5-1.5 1.5s-1.5-.672-1.5-1.5.672-1.5 1.5-1.5 1.5.672 1.5 1.5M585 298.5c0 .829-.672 1.5-1.5 1.5s-1.5-.671-1.5-1.5c0-.828.672-1.5 1.5-1.5s1.5.672 1.5 1.5M681 297.5c0 .828-.672 1.5-1.5 1.5s-1.5-.672-1.5-1.5.672-1.5 1.5-1.5 1.5.672 1.5 1.5M712 297.5c0 .828-.672 1.5-1.5 1.5s-1.5-.672-1.5-1.5.672-1.5 1.5-1.5 1.5.672 1.5 1.5M745 298c0 1.105-.895 2-2 2s-2-.895-2-2 .895-2 2-2 2 .895 2 2M778 298c0 1.657-1.343 3-3 3s-3-1.343-3-3 1.343-3 3-3 3 1.343 3 3M809 298c0 1.657-1.343 3-3 3s-3-1.343-3-3 1.343-3 3-3 3 1.343 3 3M843 297.5c0 2.486-2.015 4.5-4.5 4.5s-4.5-2.014-4.5-4.5 2.015-4.5 4.5-4.5 4.5 2.014 4.5 4.5M877 298c0 3.866-3.134 7-7 7s-7-3.134-7-7 3.134-7 7-7 7 3.134 7 7M173 326c0 2.21-1.791 4-4 4-2.21 0-4-1.79-4-4s1.79-4 4-4c2.209 0 4 1.79 4 4M205 326c0 2.21-1.791 4-4 4-2.21 0-4-1.79-4-4s1.79-4 4-4c2.209 0 4 1.79 4 4M237 326c0 2.21-1.791 4-4 4-2.21 0-4-1.79-4-4s1.79-4 4-4c2.209 0 4 1.79 4 4M269 326c0 2.209-1.79 4-4 4s-4-1.791-4-4c0-2.21 1.79-4 4-4s4 1.79 4 4M300 325.5c0 1.38-1.12 2.5-2.5 2.5s-2.5-1.12-2.5-2.5 1.12-2.5 2.5-2.5 2.5 1.12 2.5 2.5M331 325.5c0 1.38-1.12 2.5-2.5 2.5s-2.5-1.12-2.5-2.5 1.12-2.5 2.5-2.5 2.5 1.12 2.5 2.5M363 326c0 1.105-.895 2-2 2-1.104 0-2-.895-2-2s.896-2 2-2c1.105 0 2 .895 2 2M394 326.5c0 .828-.671 1.5-1.5 1.5-.828 0-1.5-.672-1.5-1.5s.672-1.5 1.5-1.5c.829 0 1.5.672 1.5 1.5M425 326c0 .553-.447 1-1 1-.552 0-1-.447-1-1 0-.553.448-1 1-1 .553 0 1 .447 1 1M585 326c0 .552-.448 1-1 1s-1-.448-1-1 .448-1 1-1 1 .448 1 1M617 325.5c0 .828-.671 1.5-1.5 1.5s-1.5-.672-1.5-1.5.671-1.5 1.5-1.5 1.5.672 1.5 1.5M649 325.5c0 .828-.672 1.5-1.5 1.5-.829 0-1.5-.672-1.5-1.5s.671-1.5 1.5-1.5c.828 0 1.5.672 1.5 1.5M681 325.5c0 .828-.672 1.5-1.5 1.5-.829 0-1.5-.672-1.5-1.5s.671-1.5 1.5-1.5c.828 0 1.5.672 1.5 1.5M713 325.5c0 .828-.672 1.5-1.5 1.5s-1.5-.672-1.5-1.5.672-1.5 1.5-1.5 1.5.672 1.5 1.5M745 326.5c0 .828-.672 1.5-1.5 1.5s-1.5-.672-1.5-1.5.672-1.5 1.5-1.5 1.5.672 1.5 1.5M777 326c0 1.105-.895 2-2 2s-2-.895-2-2 .895-2 2-2 2 .895 2 2M810 326c0 1.657-1.343 3-3 3s-3-1.343-3-3 1.343-3 3-3 3 1.343 3 3M843 326c0 2.21-1.791 4-4 4s-4-1.79-4-4 1.791-4 4-4 4 1.79 4 4M876 326c0 3.314-2.686 6-6 6s-6-2.686-6-6 2.686-6 6-6 6 2.686 6 6M173 353.5c0 1.933-1.567 3.5-3.5 3.5s-3.5-1.567-3.5-3.5 1.567-3.5 3.5-3.5 3.5 1.567 3.5 3.5M204 354c0 1.656-1.344 3-3 3s-3-1.344-3-3 1.344-3 3-3 3 1.344 3 3M236 354c0 1.656-1.344 3-3 3s-3-1.344-3-3 1.344-3 3-3 3 1.344 3 3M268 354c0 1.657-1.343 3-3 3s-3-1.343-3-3 1.343-3 3-3 3 1.343 3 3M298 353.5c0 .829-.672 1.5-1.5 1.5-.829 0-1.5-.671-1.5-1.5s.671-1.5 1.5-1.5c.828 0 1.5.671 1.5 1.5M330 354.5c0 .829-.671 1.5-1.5 1.5s-1.5-.671-1.5-1.5.671-1.5 1.5-1.5 1.5.671 1.5 1.5M617 354.5c0 .829-.671 1.5-1.5 1.5s-1.5-.671-1.5-1.5.671-1.5 1.5-1.5 1.5.671 1.5 1.5M649 354.5c0 .829-.672 1.5-1.5 1.5-.829 0-1.5-.671-1.5-1.5s.671-1.5 1.5-1.5c.828 0 1.5.671 1.5 1.5M681 353.5c0 .829-.671 1.5-1.5 1.5-.828 0-1.5-.671-1.5-1.5s.672-1.5 1.5-1.5c.829 0 1.5.671 1.5 1.5M713 354c0 1.105-.895 2-2 2-1.104 0-2-.895-2-2s.896-2 2-2c1.105 0 2 .895 2 2M745 354c0 1.105-.895 2-2 2s-2-.895-2-2 .895-2 2-2 2 .895 2 2M777 354.5c0 1.38-1.12 2.5-2.5 2.5s-2.5-1.12-2.5-2.5 1.12-2.5 2.5-2.5 2.5 1.12 2.5 2.5M809 354.5c0 1.381-1.119 2.5-2.5 2.5-1.38 0-2.5-1.119-2.5-2.5s1.12-2.5 2.5-2.5c1.381 0 2.5 1.119 2.5 2.5M843 353.5c0 2.486-2.015 4.5-4.5 4.5s-4.5-2.014-4.5-4.5 2.015-4.5 4.5-4.5 4.5 2.014 4.5 4.5M877 354c0 3.866-3.134 7-7 7s-7-3.134-7-7 3.134-7 7-7 7 3.134 7 7"/>
            </g>
        </g>
    </g>
</svg>
