<svg xmlns="http://www.w3.org/2000/svg" width="28" height="26" viewBox="0 0 28 26">
    <g fill="none">
        <path fill="#DDAE46" fill-opacity=".5" d="M29.333 24c0 2.946-2.387 5.333-5.333 5.333h-4c-2.946 0-5.333-2.387-5.333-5.333v-2.667h9.053l3.68-6.36 2.08 1.2-2.987 5.16h2.84V24M12 29.333H2.667c0-4 0-8 .44-12.226.36-3.374 1-6.894 1.693-10.44H4V4h6.667v2.667h-.8c.693 3.546 1.333 7.066 1.693 10.44.44 4.226.44 8.226.44 12.226z" transform="translate(-2 -4)"/>
        <path d="M0 0H32V32H0z" transform="translate(-2 -4)"/>
    </g>
</svg>
