<svg xmlns="http://www.w3.org/2000/svg" xmlns:xlink="http://www.w3.org/1999/xlink" width="43" height="49" viewBox="0 0 43 49">
    <defs>
        <path id="prefix__a" d="M0 49L42.577 49 42.577 0.071 0 0.071z"/>
        <path id="prefix__c" d="M3.824.075C.405 3.025.618 13.997.618 13.997l1.613-.18C3.428 6.538 7.98.587 7.98.587c-2.638.76-4.157-.512-4.157-.512z"/>
        <path id="prefix__f" d="M.686 2.264S6.961 5.943 10.78 12.269l1.492-.505S8.292 1.378 4.157.044c0 0-.858 1.829-3.47 2.22"/>
        <linearGradient id="prefix__d" x1="56.307%" x2="33.014%" y1="-2.936%" y2="97.432%">
            <stop offset="0%" stop-color="#4F5772"/>
            <stop offset="100%" stop-color="#424960"/>
        </linearGradient>
        <linearGradient id="prefix__g" x1="16.205%" x2="99.238%" y1="4.169%" y2="90.422%">
            <stop offset="0%" stop-color="#4F5772"/>
            <stop offset="100%" stop-color="#424960"/>
        </linearGradient>
    </defs>
    <g fill="none" fill-rule="evenodd">
        <g transform="translate(.5)">
            <path fill="#FF9B00" d="M29.303 18.356h6.205c-1.676 0-3.04 1.967-3.102 4.427-.063-2.46-1.428-4.427-3.103-4.427M35.516 18.354h-6.213c1.687 0 3.058-1.993 3.103-4.477.001.003.004.003.006 0 .044 2.484 1.417 4.477 3.104 4.477"/>
            <mask id="prefix__b" fill="#fff">
                <use xlink:href="#prefix__a"/>
            </mask>
            <path fill="#D5D5EA" d="M4.734 49L39.242 49 39.242 20.181 4.734 20.181z" mask="url(#prefix__b)"/>
            <path fill="#424A60" d="M37.027 9.59L38.218 14.549 4.648 22.699 3.458 17.74zM19.452 48.996L24.526 48.996 24.526 20.184 19.452 20.184z" mask="url(#prefix__b)"/>
            <path fill="#424A60" d="M4.739 37.141L39.273 37.141 39.273 32.039 4.739 32.039z" mask="url(#prefix__b)"/>
            <path fill="#4F5872" d="M19.148 12.96S10.058 9.87 7.58 6.603l.11 2.294-1.95.51s4.38 4.703 13.325 4.09l.082-.539z" mask="url(#prefix__b)"/>
            <path fill="#424A60" d="M19.563 13.179S6.034 12.576 1.397 9.125l1.047 3.065L0 13.65s7.77 4.652 19.663.291l-.1-.762zM29.126.553s3.283 10.832-5.671 12.504c0 0 5.528-8.803 3.159-11.95 0 0 2.487.01 2.512-.554" mask="url(#prefix__b)"/>
            <path fill="#4F5872" d="M22.09 13.209S21.886 2.854 25.154.071c0 0 1.451 1.2 3.972.482 0 0-4.351 5.617-5.495 12.484l-1.541.172z" mask="url(#prefix__b)"/>
        </g>
        <g transform="translate(21.5)">
            <mask id="prefix__e" fill="#fff">
                <use xlink:href="#prefix__c"/>
            </mask>
            <path fill="url(#prefix__d)" d="M3.824.075C.405 3.025.618 13.997.618 13.997l1.613-.18C3.428 6.538 7.98.587 7.98.587c-2.638.76-4.157-.512-4.157-.512z" mask="url(#prefix__e)"/>
        </g>
        <g>
            <path fill="#424A60" d="M.685 2.264S2.014 14.472 10.95 12.21c0 0-8.645-6.328-7.724-10.497 0 0-2.291 1.1-2.541.55" transform="translate(11.5 2)"/>
            <path fill="#4F5872" d="M12.273 11.765S8.292 1.378 4.156.043c0 0-.856 1.83-3.47 2.22 0 0 6.274 3.68 10.095 10.007l1.492-.505z" transform="translate(11.5 2)"/>
        </g>
        <g transform="translate(11.5 2)">
            <mask id="prefix__h" fill="#fff">
                <use xlink:href="#prefix__f"/>
            </mask>
            <path fill="url(#prefix__g)" d="M.686 2.264S6.961 5.943 10.78 12.269l1.492-.505S8.292 1.378 4.157.044c0 0-.858 1.829-3.47 2.22" mask="url(#prefix__h)"/>
        </g>
        <g fill="#FF9B00">
            <path d="M.799 5.173h7.487c-2.021 0-3.668 2.228-3.743 5.016C4.468 7.4 2.821 5.173.799 5.173M8.296 5.171H.799c2.034 0 3.692-2.26 3.746-5.074h.006C4.605 2.912 6.26 5.17 8.296 5.17M3.69 13.198h4.86c-1.313 0-2.383 1.447-2.43 3.257-.049-1.81-1.118-3.257-2.43-3.257M8.557 13.197H3.689c1.322 0 2.397-1.468 2.432-3.295h.003c.034 1.827 1.111 3.295 2.433 3.295" transform="translate(34.5 6)"/>
        </g>
    </g>
</svg>
