<?xml version="1.0" encoding="UTF-8"?>
<svg width="53px" height="38px" viewBox="0 0 53 38" version="1.1" xmlns="http://www.w3.org/2000/svg" xmlns:xlink="http://www.w3.org/1999/xlink">
    <!-- Generator: Sketch 63.1 (92452) - https://sketch.com -->
    <title>vaadin-handshake</title>
    <desc>Created with Sketch.</desc>
    <defs>
        <linearGradient x1="50%" y1="0%" x2="50%" y2="100%" id="linearGradient-1">
            <stop stop-color="#D7C36B" offset="0%"></stop>
            <stop stop-color="#9F7E2E" offset="100%"></stop>
        </linearGradient>
    </defs>
    <g id="Page-1" stroke="none" stroke-width="1" fill="none" fill-rule="evenodd">
        <g id="4.0.2-Eazydiner-Post-Membership" transform="translate(-358.000000, -1597.000000)" fill-rule="nonzero">
            <g id="vaadin-handshake" transform="translate(358.000000, 1588.000000)">
                <g id="Icon" transform="translate(0.000000, 9.137931)" fill="url(#linearGradient-1)">
                    <path d="M43.0625,0.799568966 C41.2582244,2.52637808 39.1119229,3.8556857 36.762125,4.70169397 C34.284375,5.13894397 27.4275,1.95894397 24.04875,5.20519397 C23.485625,5.76831897 22.79,6.33144397 22.06125,6.89456897 C20.47125,6.19894397 18.02,5.13894397 16.23125,4.11206897 C14.4425,3.08519397 9.9375,0.799568966 9.9375,0.799568966 L0,12.393319 C0,12.393319 2.45125,15.705819 3.975,17.892069 C4.96875,19.349569 6.194375,21.568944 6.989375,23.059569 L5.863125,24.384569 C5.3104219,25.4825228 5.50948319,26.8095981 6.36,27.697069 C7.34418077,28.4349085 8.69789753,28.4322064 9.679125,27.690444 C9.32137953,28.1093063 9.14689117,28.6543217 9.19485235,29.2030723 C9.24281352,29.7518229 9.5092035,30.2583052 9.9341875,30.6087565 C10.9641819,31.2103068 12.2389681,31.2077724 13.2665625,30.6021315 C12.487123,31.5736513 12.4829994,32.9550381 13.256625,33.931194 C14.2464481,34.2738588 15.3395462,34.1341579 16.211375,33.553569 C15.7727541,34.5917226 16.0190283,35.7928032 16.8308125,36.574569 C17.9695071,37.0805481 19.2883754,36.9654286 20.3221875,36.269819 L22.0314375,34.7228815 C23.5949375,36.2797565 25.751375,37.243694 28.1330625,37.243694 L28.335125,37.2403815 C29.9344995,37.1038563 31.3281274,36.0962149 31.959,34.620194 C32.442625,34.805694 32.9925,34.931569 33.5755,34.931569 C34.35725,34.931569 35.0826875,34.706319 35.6955,34.3187565 C37.6333125,33.036819 37.1695625,32.043069 37.1695625,32.043069 C38.5833045,32.6516195 40.2282142,32.2782023 41.240625,31.1188815 C42.2955184,30.039745 42.4837577,28.3824204 41.69775,27.094194 C41.7186974,27.1067006 41.7429767,27.1124814 41.7673125,27.1107565 C43.161875,27.1107565 44.37425,26.3422565 45.0069375,25.2093815 C45.6395131,23.5734744 45.4014234,21.7285912 44.37425,20.3068815 L44.3841875,20.323444 C47.1004375,19.793444 47.0010625,18.435319 48.3260625,16.447819 C49.5806388,14.8259056 51.1416892,13.4663174 52.9205,12.446319 L43.0625,0.799568966 Z M42.896875,24.185819 C41.439375,25.643319 40.313125,25.013944 37.82875,23.125819 C35.344375,21.237694 30.40875,17.693319 30.40875,17.693319 C30.6108125,18.7036315 31.077875,19.581444 31.7370625,20.2803815 C32.79375,21.469569 35.940625,24.185819 37.43125,25.577069 C38.35875,26.438319 40.74375,28.160819 39.3525,29.485819 C37.96125,30.810819 36.868125,29.485819 34.5825,27.630819 C32.296875,25.775819 27.195625,21.204569 27.195625,21.204569 C27.13878,22.0909159 27.4643681,22.9591509 28.09,23.589569 C28.653125,24.252069 31.8,27.299569 33.125,28.690819 C34.45,30.082069 35.609375,30.910194 34.483125,32.003319 C33.356875,33.096444 31.07125,31.373944 29.8125,30.082069 C27.858125,28.193944 23.9825,24.682694 23.9825,24.682694 L23.9791875,24.8582565 C23.9791875,25.7990065 24.3038125,26.6602565 24.850375,27.3426315 C25.804375,28.5947565 27.659375,30.2178815 28.785625,31.4766315 C29.911875,32.7353815 30.574375,33.7953815 28.785625,34.7891315 C26.996875,35.7828815 24.346875,33.3316315 23.1875,32.1391315 L23.1875,32.1325065 C23.1877383,31.8053322 23.0701478,31.4890138 22.85625,31.241444 C22.0487495,30.4934132 20.8935822,30.2537096 19.855125,30.618694 C20.2790689,30.2391316 20.5229936,29.6981763 20.5267787,29.1291581 C20.5305637,28.56014 20.293857,28.0159875 19.875,27.630819 C18.9813899,26.9537647 17.7461232,26.9551191 16.854,27.6341315 C17.2986393,27.2094143 17.5256937,26.6053445 17.4708962,25.9929018 C17.4160987,25.3804591 17.0854126,24.8262924 16.5724375,24.4872565 C15.3558588,23.7228394 13.7851971,23.8298692 12.6835625,24.7522565 C13.4292283,23.8485107 13.3298847,22.5175988 12.4583125,21.734569 C11.3875675,20.7379458 9.78842152,20.5653566 8.5296875,21.310569 L6.326875,17.5906315 C4.803125,15.1725065 3.014375,12.6550065 3.014375,12.6550065 L10.566875,3.47938147 C10.566875,3.47938147 13.25,5.13563147 15.469375,6.39438147 C16.5625,7.02375647 18.450625,7.85188147 19.875,8.51438147 C17.6225,10.2037565 15.734375,11.8268815 16.2975,12.9531315 C18.3523536,14.4282206 21.106182,14.4757232 23.2106875,13.0723815 C24.5285008,12.1963211 26.0769464,11.7316721 27.659375,11.737444 C28.8088125,11.737444 29.9019375,11.975944 30.892375,12.4098815 C32.7275,13.6487565 36.10625,16.6962565 39.186875,18.6175065 C43.0625,21.4331315 43.824375,23.2550065 42.896875,24.1825065 L42.896875,24.185819 Z" id="Icon-Shape"></path>
                </g>
                <rect id="ViewBox" x="0" y="0" width="53" height="53"></rect>
            </g>
        </g>
    </g>
</svg>