<svg xmlns="http://www.w3.org/2000/svg" width="35" height="35" viewBox="0 0 35 35">
    <g fill="none" fill-rule="evenodd">
        <path fill="#D5D5EA" d="M28 14c0 1.378-.2 2.71-.57 3.968-.87 2.947-2.683 5.49-5.091 7.278C20.009 26.976 17.125 28 14 28 6.268 28 0 21.732 0 14c0-3.87 1.57-7.371 4.107-9.905C6.64 1.565 10.137 0 14 0c2.9 0 5.593.882 7.828 2.391C25.552 4.907 28 9.168 28 14z" transform="translate(3.5 3.5)"/>
        <path fill="#D5D5EA" d="M28 14c0 1.379-.2 2.71-.57 3.968-.87 2.947-2.683 5.49-5.091 7.278C20.009 26.976 17.125 28 14 28c-.315 0-.628-.01-.939-.031 2.763-.183 5.306-1.167 7.4-2.723 2.407-1.788 4.22-4.331 5.09-7.278.371-1.259.57-2.59.57-3.968 0-4.832-2.448-9.093-6.172-11.608C17.958 1.046 15.601.199 13.06.03 13.37.011 13.684 0 14 0c2.9 0 5.593.882 7.828 2.392C25.55 4.907 28 9.168 28 14z" transform="translate(3.5 3.5)"/>
        <path fill="#8A8A96" d="M28 14c0 1.379-.2 2.71-.57 3.968l-2.492-2.492c-.082-.082-.188-.137-.302-.157l-2.858-.491c-.115-.02-.22-.075-.303-.157l-.402-.402c-.105-.106-.165-.249-.165-.398v-3.86c0-.15.06-.294.165-.399l.59-.59c.105-.105.165-.249.165-.398V2.392C25.55 4.907 28 9.168 28 14z" transform="translate(3.5 3.5)"/>
        <path fill="#8A8A96" d="M28 14c0 1.379-.2 2.71-.57 3.968l-1.522-1.522c.14-.794.214-1.611.214-2.446 0-3.963-1.647-7.542-4.294-10.088v-1.52C25.55 4.907 28 9.168 28 14zM22.339 22.498v2.748c-2.329 1.73-5.213 2.753-8.336 2.754-.316 0-.629-.01-.94-.031C5.878 27.489.124 21.537.003 14.235c-.065-3.962 1.517-7.555 4.105-10.14l1.078 2.989c.088.243.319.405.577.405h4.19c.163 0 .319.065.433.18l1.854 1.853c.115.115.18.271.18.434v7.108c0 .163.064.319.18.434l1.489 1.49c.115.114.27.178.433.178h4.486c.163 0 .32.065.434.18l2.718 2.718c.115.116.18.272.18.434z" transform="translate(3.5 3.5)"/>
        <path fill="#8A8A96" d="M22.339 23.571v1.675c-2.329 1.73-5.213 2.753-8.336 2.754-.316 0-.629-.01-.94-.031 2.762-.184 5.304-1.167 7.397-2.723.676-.501 1.305-1.063 1.879-1.675z" transform="translate(3.5 3.5)"/>
        <path fill="#424A60" d="M17.41 12.392c0 2.014-2.987 7.407-4.068 9.292-.17.297-.598.297-.768 0-1.08-1.885-4.067-7.278-4.067-9.292 0-2.458 1.993-4.45 4.451-4.45 2.459 0 4.452 1.992 4.452 4.45z" transform="translate(3.5 3.5)"/>
        <path fill="#EBEEF2" d="M15.022 11.914c0 1.14-.924 2.063-2.064 2.063-1.14 0-2.063-.924-2.063-2.063 0-1.14.924-2.063 2.063-2.063 1.14 0 2.064.923 2.064 2.063z" transform="translate(3.5 3.5)"/>
        <g fill="#FFF">
            <path d="M1.442.875H.43C.196.875.007.686.007.453.007.219.196.03.429.03h1.013c.234 0 .423.19.423.423 0 .233-.19.422-.423.422zM3.914 2.44H.429c-.233 0-.422-.188-.422-.422 0-.233.189-.422.422-.422h3.485c.233 0 .422.189.422.422 0 .234-.189.423-.422.423zM3.914 3.629H.429c-.233 0-.422-.19-.422-.423 0-.233.189-.422.422-.422h3.485c.233 0 .422.189.422.422 0 .234-.189.423-.422.423z" transform="translate(3.5 3.5) translate(4.977 18.266)"/>
        </g>
    </g>
</svg>
