<svg xmlns="http://www.w3.org/2000/svg" xmlns:xlink="http://www.w3.org/1999/xlink" width="67" height="46" viewBox="0 0 67 46">
    <defs>
        <path id="prefix__a" d="M.589.186v2.35c1.18 0 2.134.974 2.134 2.176C2.723 5.918 1.77 6.89.59 6.89v2.077c1.18 0 2.134.971 2.134 2.175 0 1.202-.954 2.179-2.134 2.179v2.074c1.18 0 2.134.975 2.134 2.177 0 1.203-.954 2.176-2.134 2.176v2.076c1.18 0 2.134.973 2.134 2.177 0 1.202-.954 2.179-2.134 2.179v2.349h53.75v-2.35c-1.178 0-2.132-.976-2.132-2.178 0-1.204.954-2.177 2.133-2.177v-2.076c-1.179 0-2.133-.973-2.133-2.176 0-1.202.954-2.177 2.133-2.177v-2.074c-1.179 0-2.133-.977-2.133-2.179 0-1.204.954-2.175 2.133-2.175V6.891c-1.179 0-2.133-.973-2.133-2.18 0-1.201.954-2.174 2.133-2.174V.186H.589z"/>
        <path id="prefix__c" d="M.2 16.92l.663 2.3c1.14-.352 2.333.319 2.675 1.494.338 1.179-.303 2.417-1.44 2.771l.588 2.032c1.137-.35 2.334.318 2.673 1.493.34 1.179-.303 2.419-1.44 2.772l.59 2.031c1.13-.352 2.329.317 2.67 1.493.34 1.177-.306 2.42-1.44 2.774l.587 2.03c1.134-.353 2.332.314 2.672 1.495.342 1.175-.303 2.415-1.441 2.77l.665 2.301 51.765-16.088-.665-2.299c-1.137.353-2.333-.318-2.675-1.496-.338-1.175.305-2.417 1.443-2.77l-.59-2.034c-1.134.353-2.332-.312-2.67-1.49-.342-1.18.303-2.42 1.438-2.77l-.588-2.034c-1.135.353-2.327-.312-2.67-1.493-.34-1.179.304-2.419 1.439-2.768L53.863 7.4c-1.137.354-2.335-.314-2.675-1.493-.34-1.179.305-2.421 1.442-2.772l-.665-2.3L.2 16.921z"/>
    </defs>
    <g fill="none" fill-rule="evenodd">
        <g transform="translate(12.5 17)">
            <mask id="prefix__b" fill="#fff">
                <use xlink:href="#prefix__a"/>
            </mask>
            <path fill="#4F5872" d="M-8.803 38.108L63.732 38.108 63.732 -9.392 -8.803 -9.392z" mask="url(#prefix__b)"/>
        </g>
        <path fill="#424A60" d="M19.5 41L58.5 41 58.5 21 19.5 21z"/>
        <path fill="#FF9B00" d="M37.991 29.111L31.5 29.111 36.753 32.889 34.744 39 39.997 35.223 45.254 39 43.245 32.889 48.5 29.111 42.007 29.111 39.997 23z"/>
        <g transform="translate(.5)">
            <mask id="prefix__d" fill="#fff">
                <use xlink:href="#prefix__c"/>
            </mask>
            <path fill="#D5D5EA" d="M-9.242 54.466L69.431 54.466 69.431 -8.956 -9.242 -8.956z" mask="url(#prefix__d)"/>
        </g>
        <path fill="#F2F2FD" d="M8.5 17.763L14.39 38 52.5 26.237 46.612 6z"/>
        <path fill="#FF9B00" d="M28.229 19.494L22.5 21.359 28.144 23.508 28.008 30 31.633 24.835 37.278 26.984 33.875 21.641 37.5 16.475 31.771 18.341 28.367 13z"/>
    </g>
</svg>
