<?xml version="1.0" encoding="UTF-8"?>
<svg width="220px" height="63px" viewBox="0 0 220 63" version="1.1" xmlns="http://www.w3.org/2000/svg" xmlns:xlink="http://www.w3.org/1999/xlink">
    <!-- Generator: Sketch 63.1 (92452) - https://sketch.com -->
    <title>Urban Company Logo Copy</title>
    <desc>Created with Sketch.</desc>
    <defs>
        <path d="M5.76731707,0.3945 L0.225365854,28.6845 L3.58536585,28.6845 L5.32682927,19.4295 C6.54943902,20.137 7.94158537,20.517 9.36343902,20.5295 L9.36343902,20.5295 C15.5968537,20.5295 20.5134146,13.2695 20.8309756,7.0295 L20.8309756,7.0295 C20.9539024,3.4295 19.3814634,0.6195 16.0419512,0.6195 L16.0419512,0.6195 C13.5829024,0.6195 10.182439,2.754 7.72390244,6.6195 L7.72390244,6.6195 L8.92243902,0.3945 L5.76731707,0.3945 Z M5.76731707,16.775 C5.76731707,16.775 6.33585366,13.6595 6.79170732,12.1345 L6.79170732,12.1345 C8.43073171,6.8295 12.4622195,3.6345 14.9868293,3.6345 L14.9868293,3.6345 C17.1739024,3.6695 17.8653659,5.1945 17.5524146,7.9295 L17.5524146,7.9295 C17.112439,12.2645 13.7724146,17.9295 9.61339024,17.9295 L9.61339024,17.9295 C9.56780488,17.9305 9.52221951,17.931 9.47663415,17.931 L9.47663415,17.931 C8.148,17.931 6.85214634,17.527 5.76731707,16.775 L5.76731707,16.775 Z" id="path-1"></path>
        <linearGradient x1="13.6420908%" y1="50.0000481%" x2="256.765086%" y2="50.0000481%" id="linearGradient-3">
            <stop stop-color="#D82662" offset="0%"></stop>
            <stop stop-color="#E23644" offset="100%"></stop>
        </linearGradient>
        <path d="M3.84,0.1195 L0.455,19.7045 L3.455,19.7045 C3.455,19.7045 3.8845,16.9595 4.1945,15.4945 L4.1945,15.4945 C4.1945,15.4945 4.81,12.3845 5.055,11.3445 L5.055,11.3445 C5.915,7.8695 9.915,3.8445 12.865,3.7195 L12.865,3.7195 C13,2.7445 13.555,0.5495 13.555,0.5495 L13.555,0.5495 C10.42,0.5495 7.835,2.1345 5.685,6.4645 L5.685,6.4645 C6.2405,3.9045 6.7905,0.1195 6.7905,0.1195 L6.7905,0.1195 L3.84,0.1195 Z" id="path-4"></path>
        <linearGradient x1="-133.511944%" y1="50.0000715%" x2="239.923069%" y2="50.0000715%" id="linearGradient-6">
            <stop stop-color="#D82662" offset="0%"></stop>
            <stop stop-color="#E23644" offset="100%"></stop>
        </linearGradient>
        <path d="M0.5,12.6395 C0.315,16.9695 1.85,20.5095 6.71,20.5095 L6.71,20.5095 C12.245,20.5095 16.49,14.8345 16.8,8.244 L16.8,8.244 C17.065,3.9295 15.405,0.4295 10.5,0.4295 L10.5,0.4295 C4.9505,0.4295 0.825,6.2345 0.5,12.6395 M4.2855,12.3245 C4.47,7.5645 7.055,3.0495 9.945,3.0495 L9.945,3.0495 C12.265,3.0595 13.315,5.0145 13.13,8.8545 L13.13,8.8545 L13.145,8.8445 C12.96,13.7295 10.0695,18.1195 7.425,18.1195 L7.425,18.1195 C4.965,18.1195 4.165,15.9845 4.2855,12.3245" id="path-7"></path>
        <linearGradient x1="-177.584974%" y1="50.0000645%" x2="121.773017%" y2="50.0000645%" id="linearGradient-9">
            <stop stop-color="#D82662" offset="0%"></stop>
            <stop stop-color="#E23644" offset="100%"></stop>
        </linearGradient>
        <path d="M4.15,0.1795 C1.861,0.188 0.008,2.0405 0,4.3295 L0,4.3295 L0,20.5445 C0.0025,22.402 0.9205,24.138 2.455,25.1845 L2.455,25.1845 L15,33.7795 C16.1895,34.58 17.559,34.987 18.9315,35 L18.9315,35 L19.069,35 C20.441,34.987 21.8105,34.58 23,33.7795 L23,33.7795 L35.545,25.1845 C37.079,24.138 37.998,22.402 38,20.5445 L38,20.5445 L38,4.3295 C37.9915,2.0405 36.1385,0.188 33.85,0.1795 L33.85,0.1795 L4.15,0.1795 Z" id="path-10"></path>
        <linearGradient x1="0%" y1="50.0000172%" x2="100%" y2="50.0000172%" id="linearGradient-12">
            <stop stop-color="#D82662" offset="0%"></stop>
            <stop stop-color="#E23644" offset="100%"></stop>
        </linearGradient>
    </defs>
    <g id="Urban-Company-Logo-Copy" stroke="none" stroke-width="1" fill="none" fill-rule="evenodd">
        <g id="Group-28" transform="translate(0.000000, 14.000000)">
            <g id="Group-3" transform="translate(171.000000, 6.000000)">
                <mask id="mask-2" fill="white">
                    <use xlink:href="#path-1"></use>
                </mask>
                <g id="Clip-2"></g>
                <path d="M5.76731707,0.3945 L0.225365854,28.6845 L3.58536585,28.6845 L5.32682927,19.4295 C6.54943902,20.137 7.94158537,20.517 9.36343902,20.5295 L9.36343902,20.5295 C15.5968537,20.5295 20.5134146,13.2695 20.8309756,7.0295 L20.8309756,7.0295 C20.9539024,3.4295 19.3814634,0.6195 16.0419512,0.6195 L16.0419512,0.6195 C13.5829024,0.6195 10.182439,2.754 7.72390244,6.6195 L7.72390244,6.6195 L8.92243902,0.3945 L5.76731707,0.3945 Z M5.76731707,16.775 C5.76731707,16.775 6.33585366,13.6595 6.79170732,12.1345 L6.79170732,12.1345 C8.43073171,6.8295 12.4622195,3.6345 14.9868293,3.6345 L14.9868293,3.6345 C17.1739024,3.6695 17.8653659,5.1945 17.5524146,7.9295 L17.5524146,7.9295 C17.112439,12.2645 13.7724146,17.9295 9.61339024,17.9295 L9.61339024,17.9295 C9.56780488,17.9305 9.52221951,17.931 9.47663415,17.931 L9.47663415,17.931 C8.148,17.931 6.85214634,17.527 5.76731707,16.775 L5.76731707,16.775 Z" id="Fill-1" fill="url(#linearGradient-3)" mask="url(#mask-2)"></path>
            </g>
            <g id="Group-6" transform="translate(192.000000, 7.000000)">
                <mask id="mask-5" fill="white">
                    <use xlink:href="#path-4"></use>
                </mask>
                <g id="Clip-5"></g>
                <path d="M3.84,0.1195 L0.455,19.7045 L3.455,19.7045 C3.455,19.7045 3.8845,16.9595 4.1945,15.4945 L4.1945,15.4945 C4.1945,15.4945 4.81,12.3845 5.055,11.3445 L5.055,11.3445 C5.915,7.8695 9.915,3.8445 12.865,3.7195 L12.865,3.7195 C13,2.7445 13.555,0.5495 13.555,0.5495 L13.555,0.5495 C10.42,0.5495 7.835,2.1345 5.685,6.4645 L5.685,6.4645 C6.2405,3.9045 6.7905,0.1195 6.7905,0.1195 L6.7905,0.1195 L3.84,0.1195 Z" id="Fill-4" fill="url(#linearGradient-6)" mask="url(#mask-5)"></path>
            </g>
            <g id="Group-9" transform="translate(203.000000, 6.000000)">
                <mask id="mask-8" fill="white">
                    <use xlink:href="#path-7"></use>
                </mask>
                <g id="Clip-8"></g>
                <path d="M0.5,12.6395 C0.315,16.9695 1.85,20.5095 6.71,20.5095 L6.71,20.5095 C12.245,20.5095 16.49,14.8345 16.8,8.244 L16.8,8.244 C17.065,3.9295 15.405,0.4295 10.5,0.4295 L10.5,0.4295 C4.9505,0.4295 0.825,6.2345 0.5,12.6395 M4.2855,12.3245 C4.47,7.5645 7.055,3.0495 9.945,3.0495 L9.945,3.0495 C12.265,3.0595 13.315,5.0145 13.13,8.8545 L13.13,8.8545 L13.145,8.8445 C12.96,13.7295 10.0695,18.1195 7.425,18.1195 L7.425,18.1195 C4.965,18.1195 4.165,15.9845 4.2855,12.3245" id="Fill-7" fill="url(#linearGradient-9)" mask="url(#mask-8)"></path>
            </g>
            <g id="Group-22" transform="translate(47.000000, 0.000000)" fill="#FFFFFF">
                <path d="M96.6694606,18.5643 L97.6384647,11.4898 L101.921162,11.4898 C102.066763,10.4443 102.5839,7.0398 102.729502,6.4248 L98.3212863,6.4248 L99.1246058,0.4248 L92.6980498,2.8348 L91.879668,6.4293 L89.620332,6.5398 L89.0379253,11.4943 L91.106473,11.4943 L90.0370539,19.1443 C89.3743154,23.8893 90.2328631,26.1443 94.4452697,26.1443 C96.4656183,26.1098 98.4483112,25.5958 100.22917,24.6443 L100.96722,20.0793 C99.999722,20.6053 98.9363278,20.9333 97.8392946,21.0448 C96.5590041,21.0448 96.3983402,20.3848 96.6694606,18.5643" id="Fill-10"></path>
                <path d="M26.8609959,21.48955 C25.5204564,21.48955 24.7472614,20.28455 24.7472614,17.91955 C24.7472614,14.38455 26.1982573,11.55455 27.9756017,11.55455 C29.2659336,11.55455 30.0592116,12.70955 30.0592116,15.12455 C30.0592116,18.61455 28.6534025,21.48955 26.8609959,21.48955 M28.683527,6.37455 C22.6586307,6.37455 18.0596266,11.72955 18.0596266,18.12955 C18.0596266,22.93905 20.8360996,26.62955 26.263527,26.62955 C32.3185477,26.62955 36.8874274,21.27455 36.8874274,14.82955 C36.8874274,10.05955 34.1762241,6.37455 28.683527,6.37455" id="Fill-12"></path>
                <path d="M18.6821992,10.5245 L18.7926556,7.0245 C16.5684647,7.1395 14.5651867,7.1845 11.0607054,7.1845 C7.3353112,7.1845 6.15041494,7.1395 3.3940249,7.0345 L3.16307054,7.0345 C2.90701245,9.0345 2.66099585,10.9745 2.27439834,12.7595 C3.94128631,12.7095 5.42742739,12.6795 9.45908714,12.6795 L0.22593361,22.5995 L0.14560166,26.1545 C2.40493776,25.9945 5.21655602,25.9645 8.44489627,25.9645 C11.3368465,25.9645 14.2237759,25.9945 16.0814523,26.1545 C16.3977593,23.9845 16.7190871,22.4895 17.0856017,20.7445 L17.1609129,20.3995 C15.7551037,20.4795 13.3150207,20.5095 9.45406639,20.5095 L18.6821992,10.5245 Z" id="Fill-14"></path>
                <path d="M64.2655602,6.6495 C61.5995436,6.6495 58.7075934,8.9045 56.6741909,12.6495 C57.1260581,9.5645 56.8549378,6.6495 53.2349793,6.6495 C50.4886307,6.6495 47.5364315,9.0145 45.503029,12.9245 C45.8961535,10.9225 45.9820083,8.8725 45.7590871,6.8445 C43.5916307,7.212 41.4000747,7.421 39.2019917,7.4695 C39.2793112,9.578 39.1547967,11.6895 38.8304564,13.7745 L37.9769295,19.5795 C37.9367635,19.8545 37.8965975,20.1345 37.8514108,20.4145 C37.550166,22.4795 37.2238174,24.6945 36.8974689,26.1495 L43.7909544,26.1495 C43.8160581,25.3545 43.9817427,24.2045 44.1424066,23.0695 C44.1875934,22.7645 44.2327801,22.4595 44.2729461,22.1645 L44.8704149,18.1645 C45.3724896,15.5745 47.4209544,12.5195 49.0225726,12.5195 C49.9413693,12.5195 49.9112448,13.4045 49.650166,15.0795 L48.9874274,19.5795 L48.8518672,20.4295 C48.5456017,22.4945 48.2192531,24.7095 47.8929046,26.1645 L54.8516598,26.1645 C54.8817842,25.2145 55.0826141,23.7695 55.2683817,22.4445 L55.303527,22.1795 L55.9009959,18.1795 C56.4030705,15.5895 58.4515353,12.5345 60.0481328,12.5345 C60.9719502,12.5345 60.936805,13.3895 60.7912033,14.5345 L59.0992116,26.1445 L65.4454357,26.1445 L67.6897095,12.9295 C68.1717012,9.6445 67.9156432,6.6495 64.2655602,6.6495" id="Fill-16"></path>
                <path d="M80.9747564,17.7796 C80.5876568,20.0146 78.9664577,22.2491 76.6468726,22.5396 C75.0854203,22.7291 73.7092336,21.7846 73.5490718,20.5396 C73.449661,19.7926 73.6600303,19.0386 74.1314784,18.4496 C74.9112004,17.5691 76.0077315,17.0296 77.1840925,16.9496 C78.4729183,16.8116 79.7758021,16.8881 81.0400261,17.1746 L80.9747564,17.7796 Z M78.0727647,5.9296 C75.6613,6.1946 73.3281589,6.9371 71.2094037,8.1146 L72.5298602,12.1146 C74.068217,11.2546 75.7561921,10.6926 77.5054203,10.4596 C80.2362046,10.1196 81.3457896,10.9596 81.5220178,12.3546 C81.5697149,12.8421 81.5571631,13.3341 81.4868726,13.8196 L81.4216029,14.1096 C79.5830054,13.7621 77.7007274,13.7016 75.843051,13.9296 C73.1925988,14.2546 71.0281548,15.3146 69.7082004,16.9696 C68.6126734,18.4821 68.1964535,20.3796 68.5584494,22.2091 C69.2061257,25.1696 71.3700676,26.4746 74.6636776,26.0696 C76.877827,25.8336 78.8866278,24.6696 80.1864992,22.8696 C80.158383,23.3871 80.1036568,23.9026 80.0208145,24.4146 C79.9485158,24.9241 79.8310303,25.4261 79.6688602,25.9146 L85.9955033,25.9146 C85.9643747,25.2981 85.9643747,24.6811 85.9955033,24.0641 C86.1757481,21.7346 86.5924701,18.2746 87.2557108,13.6646 C87.3787191,12.6681 87.3787191,11.6606 87.2557108,10.6646 C86.7586568,6.9296 83.1738436,5.3196 78.0727647,5.9296 L78.0727647,5.9296 Z" id="Fill-18"></path>
                <path d="M110.692256,21.48955 C109.351717,21.48955 108.578522,20.28455 108.578522,17.91955 C108.578522,14.38455 110.03002,11.55455 111.807364,11.55455 C113.102215,11.55455 113.890472,12.70955 113.890472,15.12455 C113.890472,18.61455 112.46458,21.48955 110.692256,21.48955 M112.52031,6.37455 C106.495414,6.37455 101.895907,11.72955 101.895907,18.12955 C101.895907,22.93905 104.672883,26.62955 110.095289,26.62955 C116.149808,26.62955 120.71919,21.27455 120.71919,14.82955 C120.71919,10.05955 117.987401,6.37455 112.52031,6.37455" id="Fill-20"></path>
            </g>
            <g id="Group-25" transform="translate(0.000000, 1.000000)">
                <mask id="mask-11" fill="white">
                    <use xlink:href="#path-10"></use>
                </mask>
                <g id="Clip-24"></g>
                <path d="M4.15,0.1795 C1.861,0.188 0.008,2.0405 0,4.3295 L0,4.3295 L0,20.5445 C0.0025,22.402 0.9205,24.138 2.455,25.1845 L2.455,25.1845 L15,33.7795 C16.1895,34.58 17.559,34.987 18.9315,35 L18.9315,35 L19.069,35 C20.441,34.987 21.8105,34.58 23,33.7795 L23,33.7795 L35.545,25.1845 C37.079,24.138 37.998,22.402 38,20.5445 L38,20.5445 L38,4.3295 C37.9915,2.0405 36.1385,0.188 33.85,0.1795 L33.85,0.1795 L4.15,0.1795 Z" id="Fill-23" fill="url(#linearGradient-12)" mask="url(#mask-11)"></path>
            </g>
            <path d="M26.1907833,21.2248018 C26.1166516,21.6719525 25.7435224,21.9989732 25.3061457,22 L12.6938832,22 C12.2570008,21.9989732 11.8838715,21.6719525 11.8092457,21.2248018 L10.0053759,10.197479 C9.96732162,9.94233096 10.1353533,9.70361098 10.3809762,9.664081 C10.5084826,9.64354595 10.6379658,9.68102242 10.736808,9.76624289 L15.580075,13.9451259 L18.6293563,9.20666273 C18.7652643,8.99412494 19.0415282,8.93611342 19.2461315,9.07677852 C19.2955526,9.11117473 19.3380547,9.1553251 19.3706727,9.20666273 L22.419954,13.9553935 L27.263221,9.77651041 C27.4544806,9.61171662 27.7381576,9.63943894 27.8967993,9.83811557 C27.9788384,9.94079083 28.0144215,10.0752954 27.9946531,10.2077465 L26.1907833,21.2248018 Z" id="Fill-26" fill="#FFFFFF"></path>
        </g>
    </g>
</svg>