<?xml version="1.0" encoding="UTF-8"?>
<svg width="29px" height="29px" viewBox="0 0 29 29" version="1.1" xmlns="http://www.w3.org/2000/svg" xmlns:xlink="http://www.w3.org/1999/xlink">
    <!-- Generator: Sketch 63.1 (92452) - https://sketch.com -->
    <title>bx-bxs-phone</title>
    <desc>Created with Sketch.</desc>
    <g id="Page-1" stroke="none" stroke-width="1" fill="none" fill-rule="evenodd">
        <g id="7.0.1-Priority-Service" transform="translate(-398.000000, -1118.000000)" fill-rule="nonzero">
            <g id="Group-3" transform="translate(330.000000, 1104.000000)">
                <g id="bx-bxs-phone" transform="translate(64.000000, 9.000000)">
                    <g id="Icon" transform="translate(4.000000, 5.000000)" fill="#000000">
                        <path d="M28.43775,22.1383333 L22.0015,16.2863333 C21.3690738,15.7115248 20.3947977,15.7416426 19.7990833,16.3544167 L16.0101667,20.251 C15.0981667,20.0768333 13.2646667,19.50525 11.3773333,17.6226667 C9.49,15.73375 8.91841667,13.8955 8.749,12.9898333 L12.6424167,9.19933333 C13.256007,8.60397898 13.2861454,7.62903388 12.7105,6.99691667 L6.86008333,0.56225 C6.28411013,-0.0719458291 5.30817351,-0.132985718 4.65766667,0.4245 L1.22183333,3.37108333 C0.948092448,3.64581582 0.784705962,4.01146351 0.762666667,4.39866667 C0.738916667,4.7945 0.286083333,14.171 7.55675,21.4448333 C13.8995833,27.7860833 21.84475,28.25 24.0329167,28.25 C24.35275,28.25 24.5490833,28.2405 24.6013333,28.2373333 C24.9884821,28.2156609 25.3539312,28.0515473 25.6273333,27.7765833 L28.5723333,24.3391667 C29.1321486,23.6905895 29.0724209,22.7138664 28.43775,22.1383333 Z" id="Icon-Path"></path>
                    </g>
                    <rect id="ViewBox" x="0" y="0" width="38" height="38"></rect>
                </g>
            </g>
        </g>
    </g>
</svg>