<svg width="153" height="148" viewBox="0 0 153 148" fill="none" xmlns="http://www.w3.org/2000/svg">
<ellipse cx="76.3898" cy="33.8395" rx="19.5718" ry="29.3576" transform="rotate(-17.2424 76.3898 33.8395)" stroke="#DDAE46"/>
<path d="M62.2346 9.32348C44.5065 20.5892 51.8534 61.9475 80.1969 62.4823" stroke="#DDAE46"/>
<path d="M86.8433 61.3308C76.3266 42.1841 82.0701 31.8021 69.6868 11.9473C82.0701 31.8021 72.9052 43.2459 83.4218 62.3926" stroke="#DDAE46"/>
<ellipse cx="30.1205" cy="89.845" rx="24.702" ry="37.0531" stroke="#DDAE46"/>
<path d="M22.2292 54.9972C-3.35496 61.9447 -9.97168 114.547 23.9936 125.795" stroke="#DDAE46"/>
<path d="M32.4363 126.894C26.9225 99.8802 37.7297 89.5145 30.2308 60.9486C37.7297 89.5145 22.401 99.8801 27.9148 126.894" stroke="#DDAE46"/>
<ellipse cx="108.452" cy="102.539" rx="25.268" ry="37.902" transform="rotate(39.4536 108.452 102.539)" stroke="#DDAE46"/>
<path d="M124.871 69.886C100.148 58.7433 60.7299 95.9891 80.2452 126.951" stroke="#DDAE46"/>
<path d="M86.1989 133.308C99.4034 108.387 114.677 107.225 127.322 79.7885C114.677 107.225 95.8322 105.448 82.6278 130.369" stroke="#DDAE46"/>
</svg>
