<?xml version="1.0" encoding="UTF-8"?>
<svg width="26px" height="26px" viewBox="0 0 26 26" version="1.1" xmlns="http://www.w3.org/2000/svg" xmlns:xlink="http://www.w3.org/1999/xlink">
    <!-- Generator: Sketch 63.1 (92452) - https://sketch.com -->
    <title>mdi-account-circle-outline</title>
    <desc>Created with Sketch.</desc>
    <defs>
        <linearGradient x1="50%" y1="0%" x2="50%" y2="100%" id="linearGradient-1">
            <stop stop-color="#D7C36B" offset="0%"></stop>
            <stop stop-color="#9F7E2E" offset="100%"></stop>
        </linearGradient>
    </defs>
    <g id="Page-1" stroke="none" stroke-width="1" fill="none" fill-rule="evenodd">
        <g id="4.0.1-Zomato-Post-Membership" transform="translate(-1281.000000, -22.000000)" fill-rule="nonzero">
            <g id="mdi-account-circle-outline" transform="translate(1279.000000, 20.000000)">
                <g id="Icon" transform="translate(2.000000, 2.000000)" fill="url(#linearGradient-1)">
                    <path d="M12.7741935,0.193548387 C5.82609508,0.193548387 0.193548387,5.82609508 0.193548387,12.7741935 C0.193548387,16.1107881 1.51900541,19.3107244 3.87833404,21.6700531 C6.23766268,24.0293817 9.437599,25.3548387 12.7741935,25.3548387 C19.722292,25.3548387 25.3548387,19.722292 25.3548387,12.7741935 C25.3548387,5.82609508 19.722292,0.193548387 12.7741935,0.193548387 M6.57193548,20.6748387 C7.11290323,19.5425806 10.4090323,18.4354839 12.7741935,18.4354839 C15.1393548,18.4354839 18.4354839,19.5425806 18.9764516,20.6748387 C17.2143857,22.0788703 15.0272294,22.8419349 12.7741935,22.8387199 C10.4341935,22.8387199 8.28290323,22.0335484 6.57193548,20.6748387 M20.7754839,18.8506452 C18.9764516,16.6616129 14.6109677,15.9193548 12.7741935,15.9193548 C10.9374194,15.9193548 6.57193548,16.6616129 4.77290323,18.8506452 C3.43455552,17.1077517 2.70925676,14.9716584 2.70967724,12.7741935 C2.70967724,7.22612903 7.22612903,2.70967742 12.7741935,2.70967742 C18.3222581,2.70967742 22.8387097,7.22612903 22.8387097,12.7741935 C22.8387097,15.063871 22.0587097,17.1774194 20.7754839,18.8506452 M12.7741935,5.22580645 C10.3335484,5.22580645 8.37096774,7.1883871 8.37096774,9.62903226 C8.37096774,12.0696774 10.3335484,14.0322581 12.7741935,14.0322581 C15.2148387,14.0322581 17.1774194,12.0696774 17.1774194,9.62903226 C17.1774194,7.1883871 15.2148387,5.22580645 12.7741935,5.22580645 M12.7741935,11.516129 C11.7319788,11.516129 10.8870968,10.671247 10.8870968,9.62903226 C10.8870968,8.58681749 11.7319788,7.74193548 12.7741935,7.74193548 C13.8164083,7.74193548 14.6612903,8.58681749 14.6612903,9.62903226 C14.6612903,10.671247 13.8164083,11.516129 12.7741935,11.516129 Z" id="Icon-Shape"></path>
                </g>
                <rect id="ViewBox" x="0" y="0" width="30" height="30"></rect>
            </g>
        </g>
    </g>
</svg>