<svg width="19" height="19" viewBox="0 0 19 19" fill="none" xmlns="http://www.w3.org/2000/svg">
<path d="M14.602 14.2501H4.39831C4.17897 14.2501 3.96549 14.225 3.76058 14.1776V15.0417C3.76058 15.3697 3.49475 15.6355 3.16683 15.6355C2.83891 15.6355 2.57308 15.3697 2.57308 15.0417V13.5782C1.96752 13.0619 1.5835 12.2934 1.5835 11.4352V9.50008C1.5835 8.62561 2.29238 7.91675 3.16683 7.91675C4.04128 7.91675 4.75016 8.62561 4.75016 9.50008V10.4501C4.75016 10.7998 5.03371 11.0834 5.3835 11.0834H13.6168C13.9666 11.0834 14.2502 10.7998 14.2502 10.4501V9.50008C14.2502 8.62561 14.959 7.91675 15.8335 7.91675C16.708 7.91675 17.4168 8.62561 17.4168 9.50008V11.4352C17.4168 12.2934 17.0328 13.0619 16.4272 13.5782V15.0417C16.4272 15.3697 16.1614 15.6355 15.8335 15.6355C15.5056 15.6355 15.2397 15.3697 15.2397 15.0417V14.1776C15.0349 14.225 14.8214 14.2501 14.602 14.2501Z" fill="url(#paint0_linear_399_882)"/>
<path d="M3.1719 7.12493C3.17859 6.86524 3.19363 6.67667 3.22735 6.50713C3.47723 5.25095 4.4592 4.26897 5.71539 4.0191C6.02128 3.95825 6.38913 3.95825 7.12484 3.95825H11.8748C12.6105 3.95825 12.9784 3.95825 13.2843 4.0191C14.5405 4.26897 15.5224 5.25095 15.7723 6.50713C15.806 6.67667 15.8211 6.86524 15.8278 7.12493L15.8332 7.12492V7.91659C14.9587 7.91659 14.2498 8.62544 14.2498 9.49992V10.4499C14.2498 10.7997 13.9663 11.0833 13.6165 11.0833H5.38317C5.03339 11.0833 4.74984 10.7997 4.74984 10.4499V9.49992C4.74984 8.62544 4.04096 7.91659 3.1665 7.91659V7.12492L3.1719 7.12493Z" fill="url(#paint1_linear_399_882)"/>
<defs>
<linearGradient id="paint0_linear_399_882" x1="9.50016" y1="7.91675" x2="9.50016" y2="15.6355" gradientUnits="userSpaceOnUse">
<stop stop-color="#A48433"/>
<stop offset="1" stop-color="#D2BD65"/>
</linearGradient>
<linearGradient id="paint1_linear_399_882" x1="9.49984" y1="3.95825" x2="9.49984" y2="11.0833" gradientUnits="userSpaceOnUse">
<stop stop-color="#A48433"/>
<stop offset="1" stop-color="#D2BD65"/>
</linearGradient>
</defs>
</svg>
