<svg width="18" height="16" viewBox="0 0 18 16" fill="none" xmlns="http://www.w3.org/2000/svg">
<path d="M16.4281 1.75893H14.3895V0H0V8.79466C0 11.4331 0.959302 13.7197 2.39826 14.775C2.39826 14.775 1.71757 15.6042 2.39826 15.8304C3.07895 16.0565 11.2192 16.0565 12.0789 15.8304C12.9387 15.6042 11.9913 14.775 11.9913 14.775C13.0705 13.8956 13.9099 12.3125 14.2696 10.5536H14.3895C17.1475 10.5536 17.867 7.03573 17.9869 4.39733C18.1068 2.99018 17.3874 1.75893 16.4281 1.75893ZM14.3895 8.79466V3.51786H16.4281C16.548 3.51786 16.6679 3.69376 16.6679 3.69376C16.6679 3.69376 16.7878 3.86965 16.7878 4.22144C16.548 8.79466 14.8692 8.79466 14.3895 8.79466Z" fill="url(#paint0_linear_486_164)"/>
<defs>
<linearGradient id="paint0_linear_486_164" x1="9" y1="0" x2="9" y2="16" gradientUnits="userSpaceOnUse">
<stop stop-color="#A48433"/>
<stop offset="1" stop-color="#D2BD65"/>
</linearGradient>
</defs>
</svg>
