<svg xmlns="http://www.w3.org/2000/svg" width="111" height="185" viewBox="0 0 111 185">
    <defs>
        <linearGradient id="prefix__a" x1="49.816%" x2="50.08%" y1="110.945%" y2="24.135%">
            <stop offset="0%" stop-color="#FFF"/>
            <stop offset="15.3%" stop-color="#C8C8C8"/>
            <stop offset="34.09%" stop-color="#8C8C8B"/>
            <stop offset="51.32%" stop-color="#5C5C5B"/>
            <stop offset="66.41%" stop-color="#3A3A38"/>
            <stop offset="78.78%" stop-color="#252523"/>
            <stop offset="86.87%" stop-color="#1D1D1B"/>
        </linearGradient>
        <linearGradient id="prefix__b" x1="50.003%" x2="50.003%" y1="-4.93%" y2="98.456%">
            <stop offset="0%" stop-color="#FFF"/>
            <stop offset="15.3%" stop-color="#C8C8C8"/>
            <stop offset="34.09%" stop-color="#8C8C8B"/>
            <stop offset="51.32%" stop-color="#5C5C5B"/>
            <stop offset="66.41%" stop-color="#3A3A38"/>
            <stop offset="78.78%" stop-color="#252523"/>
            <stop offset="86.87%" stop-color="#1D1D1B"/>
        </linearGradient>
        <linearGradient id="prefix__c" x1="49.954%" x2="50.029%" y1="50.681%" y2="49.149%">
            <stop offset="0%" stop-color="#FFF"/>
            <stop offset="17.61%" stop-color="#C8C8C8"/>
            <stop offset="39.24%" stop-color="#8C8C8B"/>
            <stop offset="59.08%" stop-color="#5C5C5B"/>
            <stop offset="76.45%" stop-color="#3A3A38"/>
            <stop offset="90.68%" stop-color="#252523"/>
            <stop offset="100%" stop-color="#1D1D1B"/>
        </linearGradient>
        <linearGradient id="prefix__d" x1="97.891%" x2="1.801%" y1="50.015%" y2="50.015%">
            <stop offset="0%" stop-color="#FFF"/>
            <stop offset="100%"/>
        </linearGradient>
        <linearGradient id="prefix__e" x1="50.016%" x2="50.016%" y1="-5.003%" y2="98.497%">
            <stop offset="0%" stop-color="#FFF"/>
            <stop offset="15.3%" stop-color="#C8C8C8"/>
            <stop offset="34.09%" stop-color="#8C8C8B"/>
            <stop offset="51.32%" stop-color="#5C5C5B"/>
            <stop offset="66.41%" stop-color="#3A3A38"/>
            <stop offset="78.78%" stop-color="#252523"/>
            <stop offset="86.87%" stop-color="#1D1D1B"/>
        </linearGradient>
    </defs>
    <g fill="none" fill-rule="evenodd">
        <g fill-rule="nonzero">
            <path fill="url(#prefix__a)" d="M96.35 184.214H15.138c-7.843 0-14.213-6.346-14.213-14.16V14.252c0-7.814 6.37-14.16 14.213-14.16h81.214c7.843 0 14.213 6.346 14.213 14.16v155.823c0 7.814-6.37 14.14-14.213 14.14z"/>
            <path fill="url(#prefix__b)" d="M87.968 175.036H23.52c-7.843 0-14.213-6.346-14.213-14.16V31.08c0-7.814 6.37-14.16 14.213-14.16h64.448c7.843 0 14.213 6.346 14.213 14.16v129.797c0 7.814-6.37 14.16-14.213 14.16z"/>
        </g>
        <g>
            <path fill="url(#prefix__c)" fill-rule="nonzero" d="M0.232 35.056H68.67999999999999V42.122H0.232z" transform="translate(20.943 71.073)"/>
            <path fill="url(#prefix__d)" fill-rule="nonzero" d="M4.36 35.077c0-16.326 13.474-29.58 30.086-29.58 16.611 0 30.086 13.254 30.086 29.58" transform="translate(20.943 71.073)"/>
            <path stroke="#FFF" stroke-linecap="round" stroke-width=".436" d="M29.617 8.654L39.811 8.654" transform="translate(20.943 71.073)"/>
            <path fill="#FFF" fill-rule="nonzero" d="M36.138 8.487h-3.013V1.84c0-.586.475-1.067 1.052-1.067h.93c.577 0 1.051.481 1.051 1.067v6.647h-.02z" transform="translate(20.943 71.073)"/>
        </g>
        <ellipse cx="55.5" cy="171.412" fill="url(#prefix__e)" fill-rule="nonzero" rx="9.425" ry="9.407"/>
        <path stroke="#FFF" stroke-linecap="round" stroke-width=".789" d="M31.415 9.407L79.585 9.407"/>
    </g>
</svg>
